<svg xmlns="http://www.w3.org/2000/svg" version="1.1" xmlns:xlink="http://www.w3.org/1999/xlink" width="512" height="512" x="0" y="0" viewBox="0 0 60 60" style="enable-background:new 0 0 512 512" xml:space="preserve"><g><path d="M30 0a30 30 0 1 0 30 30A30.034 30.034 0 0 0 30 0Zm17 30a42.182 42.182 0 0 1-2.472 14.528A42.182 42.182 0 0 1 30 47a42.182 42.182 0 0 1-14.528-2.472A42.182 42.182 0 0 1 13 30a42.182 42.182 0 0 1 2.472-14.528A42.182 42.182 0 0 1 30 13a42.182 42.182 0 0 1 14.528 2.472A42.182 42.182 0 0 1 47 30Zm-.046-13.517C53.661 19.591 58 24.493 58 30s-4.339 10.409-11.046 13.517A44.419 44.419 0 0 0 49 30a44.419 44.419 0 0 0-2.046-13.517Zm-3.437 30.471C40.409 53.661 35.507 58 30 58s-10.409-4.339-13.517-11.046A44.419 44.419 0 0 0 30 49a44.419 44.419 0 0 0 13.517-2.046Zm-30.471-3.437C6.339 40.409 2 35.507 2 30s4.339-10.409 11.046-13.517A44.419 44.419 0 0 0 11 30a44.419 44.419 0 0 0 2.046 13.517ZM30 11a44.419 44.419 0 0 0-13.517 2.046C19.591 6.339 24.493 2 30 2s10.409 4.339 13.517 11.046A44.419 44.419 0 0 0 30 11Zm-8.8-7.575a26.363 26.363 0 0 0-7.243 10.532A26.363 26.363 0 0 0 3.425 21.2 28.117 28.117 0 0 1 21.2 3.425ZM3.425 38.8a26.363 26.363 0 0 0 10.532 7.243A26.363 26.363 0 0 0 21.2 56.575 28.117 28.117 0 0 1 3.425 38.8ZM38.8 56.575a26.363 26.363 0 0 0 7.243-10.532A26.363 26.363 0 0 0 56.575 38.8 28.117 28.117 0 0 1 38.8 56.575Zm7.243-42.618A26.363 26.363 0 0 0 38.8 3.425 28.117 28.117 0 0 1 56.575 21.2a26.363 26.363 0 0 0-10.532-7.243Z" fill="#ffffff" opacity="1" data-original="#000000"></path><path d="M20 23a4 4 0 0 0-4 4 1 1 0 0 0 2 0 2 2 0 1 1 2 2 1 1 0 0 0 0 2 2 2 0 1 1-2 2 1 1 0 0 0-2 0 4 4 0 1 0 6.643-3A4 4 0 0 0 20 23ZM40 37a4 4 0 0 0 4-4v-6a4 4 0 0 0-8 0v6a4 4 0 0 0 4 4Zm-2-10a2 2 0 0 1 4 0v6a2 2 0 0 1-4 0ZM26 29v4a4 4 0 1 0 4-4 3.959 3.959 0 0 0-2 .556V29a4 4 0 0 1 4-4 1 1 0 0 0 0-2 6.006 6.006 0 0 0-6 6Zm4 2a2 2 0 1 1-2 2 2 2 0 0 1 2-2Z" fill="#ffffff" opacity="1" data-original="#000000"></path></g></svg>